<?xml version="1.0" standalone="yes"?>

<svg version="1.1" viewBox="0.0 0.0 960.0 720.0" fill="none" stroke="none" stroke-linecap="square" stroke-miterlimit="10" xmlns="http://www.w3.org/2000/svg" xmlns:xlink="http://www.w3.org/1999/xlink"><clipPath id="p.0"><path d="m0 0l960.0 0l0 720.0l-960.0 0l0 -720.0z" clip-rule="nonzero"></path></clipPath><g clip-path="url(#p.0)"><path fill="#000000" fill-opacity="0.0" d="m0 0l960.0 0l0 720.0l-960.0 0z" fill-rule="nonzero"></path><path fill="#000000" fill-opacity="0.0" d="m773.05774 579.18634l44.33777 -79.968445l90.505615 0l44.337708 79.968445l-44.337708 79.968445l-90.505615 0z" fill-rule="nonzero"></path><path stroke="#666666" stroke-width="16.0" stroke-linejoin="round" stroke-linecap="butt" d="m773.05774 579.18634l44.33777 -79.968445l90.505615 0l44.337708 79.968445l-44.337708 79.968445l-90.505615 0z" fill-rule="nonzero"></path><path fill="#000000" fill-opacity="0.0" d="m648.6483 658.54596l29.861145 -53.858276l64.68713 0l29.861145 53.858276l-29.861145 53.858215l-64.68713 0z" fill-rule="nonzero"></path><path stroke="#b7b7b7" stroke-width="12.0" stroke-linejoin="round" stroke-linecap="butt" d="m648.6483 658.54596l29.861145 -53.858276l64.68713 0l29.861145 53.858276l-29.861145 53.858215l-64.68713 0z" fill-rule="nonzero"></path><path fill="#000000" fill-opacity="0.0" d="m685.3307 524.81104l18.658875 -33.653534l40.068115 0l18.658875 33.653534l-18.658875 33.653503l-40.068115 0z" fill-rule="nonzero"></path><path stroke="#cccccc" stroke-width="8.0" stroke-linejoin="round" stroke-linecap="butt" d="m685.3307 524.81104l18.658875 -33.653534l40.068115 0l18.658875 33.653534l-18.658875 33.653503l-40.068115 0z" fill-rule="nonzero"></path><path fill="#000000" fill-opacity="0.0" d="m34.766403 638.3412l18.65887 -33.653503l40.06809 0l18.658867 33.653503l-18.658867 33.653564l-40.06809 0z" fill-rule="nonzero"></path><path stroke="#d0e0e3" stroke-width="8.0" stroke-linejoin="round" stroke-linecap="butt" d="m34.766403 638.3412l18.65887 -33.653503l40.06809 0l18.658867 33.653503l-18.658867 33.653564l-40.06809 0z" fill-rule="nonzero"></path><path fill="#000000" fill-opacity="0.0" d="m123.6273 638.3412l18.658867 -33.653503l40.068085 0l18.658875 33.653503l-18.658875 33.653564l-40.068085 0z" fill-rule="nonzero"></path><path stroke="#a2c4c9" stroke-width="8.0" stroke-linejoin="round" stroke-linecap="butt" d="m123.6273 638.3412l18.658867 -33.653503l40.068085 0l18.658875 33.653503l-18.658875 33.653564l-40.068085 0z" fill-rule="nonzero"></path><path fill="#000000" fill-opacity="0.0" d="m212.48819 638.3412l18.658875 -33.653503l40.068085 0l18.658875 33.653503l-18.658875 33.653564l-40.068085 0z" fill-rule="nonzero"></path><path stroke="#76a5af" stroke-width="8.0" stroke-linejoin="round" stroke-linecap="butt" d="m212.48819 638.3412l18.658875 -33.653503l40.068085 0l18.658875 33.653503l-18.658875 33.653564l-40.068085 0z" fill-rule="nonzero"></path><path fill="#000000" fill-opacity="0.0" d="m301.3491 638.3412l18.658875 -33.653503l40.068085 0l18.658844 33.653503l-18.658844 33.653564l-40.068085 0z" fill-rule="nonzero"></path><path stroke="#45818e" stroke-width="8.0" stroke-linejoin="round" stroke-linecap="butt" d="m301.3491 638.3412l18.658875 -33.653503l40.068085 0l18.658844 33.653503l-18.658844 33.653564l-40.068085 0z" fill-rule="nonzero"></path><path fill="#000000" fill-opacity="0.0" d="m27.737534 47.21522l18.65887 -33.653526l40.06809 0l18.658867 33.653526l-18.658867 33.65353l-40.06809 0z" fill-rule="nonzero"></path><path stroke="#cccccc" stroke-width="8.0" stroke-linejoin="round" stroke-linecap="butt" d="m27.737534 47.21522l18.65887 -33.653526l40.06809 0l18.658867 33.653526l-18.658867 33.65353l-40.06809 0z" fill-rule="nonzero"></path><path fill="#000000" fill-opacity="0.0" d="m132.3307 57.32546l13.05336 -23.543297l27.184631 0l13.05336 23.543297l-13.05336 23.543293l-27.184631 0z" fill-rule="nonzero"></path><path stroke="#cccccc" stroke-width="4.0" stroke-linejoin="round" stroke-linecap="butt" d="m132.3307 57.32546l13.05336 -23.543297l27.184631 0l13.05336 23.543297l-13.05336 23.543293l-27.184631 0z" fill-rule="nonzero"></path><path fill="#000000" fill-opacity="0.0" d="m79.03937 119.813644l9.979919 -17.999985l21.929924 0l9.979919 17.999985l-9.979919 18.0l-21.929924 0z" fill-rule="nonzero"></path><path stroke="#cccccc" stroke-width="4.0" stroke-linejoin="round" stroke-linecap="butt" d="m79.03937 119.813644l9.979919 -17.999985l21.929924 0l9.979919 17.999985l-9.979919 18.0l-21.929924 0z" fill-rule="nonzero"></path><path fill="#000000" fill-opacity="0.0" d="m17.695538 83.813644l9.979919 -17.999985l21.929924 0l9.979919 17.999985l-9.979919 17.999992l-21.929924 0z" fill-rule="nonzero"></path><path stroke="#cccccc" stroke-width="3.0" stroke-linejoin="round" stroke-linecap="butt" d="m17.695538 83.813644l9.979919 -17.999985l21.929924 0l9.979919 17.999985l-9.979919 17.999992l-21.929924 0z" fill-rule="nonzero"></path><path fill="#000000" fill-opacity="0.0" d="m390.20996 638.3412l18.658875 -33.653503l40.068085 0l18.658875 33.653503l-18.658875 33.653564l-40.068085 0z" fill-rule="nonzero"></path><path stroke="#134f5c" stroke-width="8.0" stroke-linejoin="round" stroke-linecap="butt" d="m390.20996 638.3412l18.658875 -33.653503l40.068085 0l18.658875 33.653503l-18.658875 33.653564l-40.068085 0z" fill-rule="nonzero"></path></g></svg>

