<?xml version="1.0" standalone="yes"?>

<svg version="1.1" viewBox="0.0 0.0 960.0 720.0" fill="none" stroke="none" stroke-linecap="square" stroke-miterlimit="10" xmlns="http://www.w3.org/2000/svg" xmlns:xlink="http://www.w3.org/1999/xlink"><clipPath id="p.0"><path d="m0 0l960.0 0l0 720.0l-960.0 0l0 -720.0z" clip-rule="nonzero"></path></clipPath><g clip-path="url(#p.0)"><path fill="#000000" fill-opacity="0.0" d="m0 0l960.0 0l0 720.0l-960.0 0z" fill-rule="nonzero"></path><path fill="#000000" fill-opacity="0.0" d="m855.021 19.737534l33.653503 18.65887l0 40.06809l-33.653503 18.658867l-33.653503 -18.658867l0 -40.06809z" fill-rule="nonzero"></path><path stroke="#fff2cc" stroke-width="8.0" stroke-linejoin="round" stroke-linecap="butt" d="m855.021 19.737534l33.653503 18.65887l0 40.06809l-33.653503 18.658867l-33.653503 -18.658867l0 -40.06809z" fill-rule="nonzero"></path><path fill="#000000" fill-opacity="0.0" d="m855.021 108.59843l33.653503 18.658867l0 40.068085l-33.653503 18.658875l-33.653503 -18.658875l0 -40.068085z" fill-rule="nonzero"></path><path stroke="#ffe599" stroke-width="8.0" stroke-linejoin="round" stroke-linecap="butt" d="m855.021 108.59843l33.653503 18.658867l0 40.068085l-33.653503 18.658875l-33.653503 -18.658875l0 -40.068085z" fill-rule="nonzero"></path><path fill="#000000" fill-opacity="0.0" d="m855.021 197.45932l33.653503 18.658875l0 40.068085l-33.653503 18.658875l-33.653503 -18.658875l0 -40.068085z" fill-rule="nonzero"></path><path stroke="#ffd966" stroke-width="8.0" stroke-linejoin="round" stroke-linecap="butt" d="m855.021 197.45932l33.653503 18.658875l0 40.068085l-33.653503 18.658875l-33.653503 -18.658875l0 -40.068085z" fill-rule="nonzero"></path><path fill="#000000" fill-opacity="0.0" d="m855.021 286.32022l33.653503 18.658875l0 40.068085l-33.653503 18.658844l-33.653503 -18.658844l0 -40.068085z" fill-rule="nonzero"></path><path stroke="#f1c232" stroke-width="8.0" stroke-linejoin="round" stroke-linecap="butt" d="m855.021 286.32022l33.653503 18.658875l0 40.068085l-33.653503 18.658844l-33.653503 -18.658844l0 -40.068085z" fill-rule="nonzero"></path><path fill="#000000" fill-opacity="0.0" d="m855.021 375.1811l33.653503 18.658875l0 40.068085l-33.653503 18.658875l-33.653503 -18.658875l0 -40.068085z" fill-rule="nonzero"></path><path stroke="#bf9000" stroke-width="8.0" stroke-linejoin="round" stroke-linecap="butt" d="m855.021 375.1811l33.653503 18.658875l0 40.068085l-33.653503 18.658875l-33.653503 -18.658875l0 -40.068085z" fill-rule="nonzero"></path><path fill="#000000" fill-opacity="0.0" d="m1.0209974 693.8924l17.960361 32.393677l41.465103 0l17.960361 -32.393677l-17.960361 -32.393677l-41.465103 0z" fill-rule="nonzero"></path><path stroke="#cccccc" stroke-width="8.0" stroke-linejoin="round" stroke-linecap="butt" d="m1.0209974 693.8924l17.960361 32.393677l41.465103 0l17.960361 -32.393677l-17.960361 -32.393677l-41.465103 0z" fill-rule="nonzero"></path><path fill="#000000" fill-opacity="0.0" d="m105.614174 684.1879l12.555664 22.64563l28.180016 0l12.555664 -22.64563l-12.555664 -22.64569l-28.180016 0z" fill-rule="nonzero"></path><path stroke="#cccccc" stroke-width="4.0" stroke-linejoin="round" stroke-linecap="butt" d="m105.614174 684.1879l12.555664 22.64563l28.180016 0l12.555664 -22.64563l-12.555664 -22.64569l-28.180016 0z" fill-rule="nonzero"></path><path fill="#000000" fill-opacity="0.0" d="m52.322834 624.063l9.604473 17.322815l22.680817 0l9.604477 -17.322815l-9.604477 -17.322815l-22.680817 0z" fill-rule="nonzero"></path><path stroke="#cccccc" stroke-width="4.0" stroke-linejoin="round" stroke-linecap="butt" d="m52.322834 624.063l9.604473 17.322815l22.680817 0l9.604477 -17.322815l-9.604477 -17.322815l-22.680817 0z" fill-rule="nonzero"></path><path fill="#000000" fill-opacity="0.0" d="m-9.020997 658.6958l9.604472 17.322815l22.680819 0l9.604473 -17.322815l-9.604473 -17.322815l-22.680819 0z" fill-rule="nonzero"></path><path stroke="#cccccc" stroke-width="3.0" stroke-linejoin="round" stroke-linecap="butt" d="m-9.020997 658.6958l9.604472 17.322815l22.680819 0l9.604473 -17.322815l-9.604473 -17.322815l-22.680819 0z" fill-rule="nonzero"></path><path fill="#000000" fill-opacity="0.0" d="m908.5827 711.8504l17.960327 32.393677l41.465088 0l17.960388 -32.393677l-17.960388 -32.393677l-41.465088 0z" fill-rule="nonzero"></path><path stroke="#cccccc" stroke-width="8.0" stroke-linejoin="round" stroke-linecap="butt" d="m908.5827 711.8504l17.960327 32.393677l41.465088 0l17.960388 -32.393677l-17.960388 -32.393677l-41.465088 0z" fill-rule="nonzero"></path><path fill="#000000" fill-opacity="0.0" d="m866.3963 666.51337l12.555664 22.64569l28.180054 0l12.555664 -22.64569l-12.555664 -22.64563l-28.180054 0z" fill-rule="nonzero"></path><path stroke="#cccccc" stroke-width="4.0" stroke-linejoin="round" stroke-linecap="butt" d="m866.3963 666.51337l12.555664 22.64569l28.180054 0l12.555664 -22.64569l-12.555664 -22.64563l-28.180054 0z" fill-rule="nonzero"></path><path fill="#000000" fill-opacity="0.0" d="m891.021 631.3165l12.555664 22.64563l28.179993 0l12.555664 -22.64563l-12.555664 -22.64569l-28.179993 0z" fill-rule="nonzero"></path><path stroke="#cccccc" stroke-width="4.0" stroke-linejoin="round" stroke-linecap="butt" d="m891.021 631.3165l12.555664 22.64563l28.179993 0l12.555664 -22.64563l-12.555664 -22.64569l-28.179993 0z" fill-rule="nonzero"></path><path fill="#000000" fill-opacity="0.0" d="m795.8845 690.911l9.604492 17.322815l22.680786 0l9.604492 -17.322815l-9.604492 -17.322815l-22.680786 0z" fill-rule="nonzero"></path><path stroke="#cccccc" stroke-width="3.0" stroke-linejoin="round" stroke-linecap="butt" d="m795.8845 690.911l9.604492 17.322815l22.680786 0l9.604492 -17.322815l-9.604492 -17.322815l-22.680786 0z" fill-rule="nonzero"></path><path fill="#000000" fill-opacity="0.0" d="m716.53284 651.4438l9.604431 17.322876l22.680847 0l9.604431 -17.322876l-9.604431 -17.322815l-22.680847 0z" fill-rule="nonzero"></path><path stroke="#cccccc" stroke-width="3.0" stroke-linejoin="round" stroke-linecap="butt" d="m716.53284 651.4438l9.604431 17.322876l22.680847 0l9.604431 -17.322876l-9.604431 -17.322815l-22.680847 0z" fill-rule="nonzero"></path><path fill="#000000" fill-opacity="0.0" d="m765.7297 464.042l89.29132 85.79529l89.29132 -85.79529z" fill-rule="nonzero"></path><path stroke="#76a5af" stroke-width="8.0" stroke-linejoin="round" stroke-linecap="butt" d="m765.7297 464.042l89.29132 85.79529l89.29132 -85.79529z" fill-rule="nonzero"></path></g></svg>

