<?xml version="1.0" standalone="yes"?>

<svg version="1.1" viewBox="0.0 0.0 960.0 720.0" fill="none" stroke="none" stroke-linecap="square" stroke-miterlimit="10" xmlns="http://www.w3.org/2000/svg" xmlns:xlink="http://www.w3.org/1999/xlink"><clipPath id="p.0"><path d="m0 0l960.0 0l0 720.0l-960.0 0l0 -720.0z" clip-rule="nonzero"></path></clipPath><g clip-path="url(#p.0)"><path fill="#000000" fill-opacity="0.0" d="m0 0l960.0 0l0 720.0l-960.0 0z" fill-rule="nonzero"></path><path fill="#000000" fill-opacity="0.0" d="m-42.422573 596.2493l77.57794 -139.92117l161.25359 0l77.57793 139.92117l-77.57793 139.9212l-161.25359 0z" fill-rule="nonzero"></path><path stroke="#666666" stroke-width="24.0" stroke-linejoin="round" stroke-linecap="butt" d="m-42.422573 596.2493l77.57794 -139.92117l161.25359 0l77.57793 139.92117l-77.57793 139.9212l-161.25359 0z" fill-rule="nonzero"></path><path fill="#000000" fill-opacity="0.0" d="m341.3386 582.0l44.337738 -79.968475l90.505615 0l44.337708 79.968475l-44.337708 79.968445l-90.505615 0z" fill-rule="nonzero"></path><path stroke="#666666" stroke-width="12.0" stroke-linejoin="round" stroke-linecap="butt" d="m341.3386 582.0l44.337738 -79.968475l90.505615 0l44.337708 79.968475l-44.337708 79.968445l-90.505615 0z" fill-rule="nonzero"></path><path fill="#000000" fill-opacity="0.0" d="m300.3622 447.18634l15.201263 -27.417297l32.05417 0l15.201263 27.417297l-15.201263 27.417328l-32.05417 0z" fill-rule="nonzero"></path><path stroke="#b7b7b7" stroke-width="8.0" stroke-linejoin="round" stroke-linecap="butt" d="m300.3622 447.18634l15.201263 -27.417297l32.05417 0l15.201263 27.417297l-15.201263 27.417328l-32.05417 0z" fill-rule="nonzero"></path><path fill="#000000" fill-opacity="0.0" d="m111.385826 360.0l18.658867 -33.653534l40.068085 0l18.658875 33.653534l-18.658875 33.653534l-40.068085 0z" fill-rule="nonzero"></path><path stroke="#cccccc" stroke-width="8.0" stroke-linejoin="round" stroke-linecap="butt" d="m111.385826 360.0l18.658867 -33.653534l40.068085 0l18.658875 33.653534l-18.658875 33.653534l-40.068085 0z" fill-rule="nonzero"></path><path fill="#000000" fill-opacity="0.0" d="m527.8294 638.8583l29.861145 -53.858276l64.68713 0l29.861145 53.858276l-29.861145 53.858215l-64.68713 0z" fill-rule="nonzero"></path><path stroke="#b7b7b7" stroke-width="8.0" stroke-linejoin="round" stroke-linecap="butt" d="m527.8294 638.8583l29.861145 -53.858276l64.68713 0l29.861145 53.858276l-29.861145 53.858215l-64.68713 0z" fill-rule="nonzero"></path><path fill="#000000" fill-opacity="0.0" d="m527.8294 517.78217l18.658875 -33.653534l40.068054 0l18.658875 33.653534l-18.658875 33.653503l-40.068054 0z" fill-rule="nonzero"></path><path stroke="#cccccc" stroke-width="8.0" stroke-linejoin="round" stroke-linecap="butt" d="m527.8294 517.78217l18.658875 -33.653534l40.068054 0l18.658875 33.653534l-18.658875 33.653503l-40.068054 0z" fill-rule="nonzero"></path><path fill="#000000" fill-opacity="0.0" d="m69.48294 312.09448l22.561775 -40.6929l47.474876 0l22.561768 40.6929l-22.561768 40.6929l-47.474876 0z" fill-rule="nonzero"></path><path stroke="#b7b7b7" stroke-width="8.0" stroke-linejoin="round" stroke-linecap="butt" d="m69.48294 312.09448l22.561775 -40.6929l47.474876 0l22.561768 40.6929l-22.561768 40.6929l-47.474876 0z" fill-rule="nonzero"></path><path fill="#000000" fill-opacity="0.0" d="m77.08924 520.96063l18.658867 -33.653534l40.068085 0l18.658875 33.653534l-18.658875 33.653503l-40.068085 0z" fill-rule="nonzero"></path><path stroke="#b7b7b7" stroke-width="8.0" stroke-linejoin="round" stroke-linecap="butt" d="m77.08924 520.96063l18.658867 -33.653534l40.068085 0l18.658875 33.653534l-18.658875 33.653503l-40.068085 0z" fill-rule="nonzero"></path><path fill="#000000" fill-opacity="0.0" d="m329.8924 658.4068l22.561768 -40.69287l47.474884 0l22.561768 40.69287l-22.561768 40.692932l-47.474884 0z" fill-rule="nonzero"></path><path stroke="#b7b7b7" stroke-width="8.0" stroke-linejoin="round" stroke-linecap="butt" d="m329.8924 658.4068l22.561768 -40.69287l47.474884 0l22.561768 40.69287l-22.561768 40.692932l-47.474884 0z" fill-rule="nonzero"></path><path fill="#000000" fill-opacity="0.0" d="m642.6116 524.0945l12.232605 -22.062988l27.597778 0l12.232605 22.062988l-12.232605 22.062988l-27.597778 0z" fill-rule="nonzero"></path><path stroke="#d9d9d9" stroke-width="4.0" stroke-linejoin="round" stroke-linecap="butt" d="m642.6116 524.0945l12.232605 -22.062988l27.597778 0l12.232605 22.062988l-12.232605 22.062988l-27.597778 0z" fill-rule="nonzero"></path><path fill="#000000" fill-opacity="0.0" d="m707.8294 658.4068l12.232605 -22.062927l27.597778 0l12.232605 22.062927l-12.232605 22.062988l-27.597778 0z" fill-rule="nonzero"></path><path stroke="#d9d9d9" stroke-width="4.0" stroke-linejoin="round" stroke-linecap="butt" d="m707.8294 658.4068l12.232605 -22.062927l27.597778 0l12.232605 22.062927l-12.232605 22.062988l-27.597778 0z" fill-rule="nonzero"></path><path fill="#000000" fill-opacity="0.0" d="m631.0184 561.90814l12.232605 -22.062988l27.597778 0l12.232605 22.062988l-12.232605 22.062988l-27.597778 0z" fill-rule="nonzero"></path><path stroke="#d9d9d9" stroke-width="4.0" stroke-linejoin="round" stroke-linecap="butt" d="m631.0184 561.90814l12.232605 -22.062988l27.597778 0l12.232605 22.062988l-12.232605 22.062988l-27.597778 0z" fill-rule="nonzero"></path><path fill="#000000" fill-opacity="0.0" d="m196.05249 447.18634l12.232605 -22.062958l27.597778 0l12.232605 22.062958l-12.232605 22.062988l-27.597778 0z" fill-rule="nonzero"></path><path stroke="#d9d9d9" stroke-width="4.0" stroke-linejoin="round" stroke-linecap="butt" d="m196.05249 447.18634l12.232605 -22.062958l27.597778 0l12.232605 22.062958l-12.232605 22.062988l-27.597778 0z" fill-rule="nonzero"></path><path fill="#000000" fill-opacity="0.0" d="m281.96588 517.78217l12.232605 -22.062988l27.597778 0l12.232605 22.062988l-12.232605 22.062988l-27.597778 0z" fill-rule="nonzero"></path><path stroke="#d9d9d9" stroke-width="4.0" stroke-linejoin="round" stroke-linecap="butt" d="m281.96588 517.78217l12.232605 -22.062988l27.597778 0l12.232605 22.062988l-12.232605 22.062988l-27.597778 0z" fill-rule="nonzero"></path><path fill="#000000" fill-opacity="0.0" d="m124.04724 670.3307l12.232605 -22.062988l27.597778 0l12.232605 22.062988l-12.232605 22.062988l-27.597778 0z" fill-rule="nonzero"></path><path stroke="#d9d9d9" stroke-width="4.0" stroke-linejoin="round" stroke-linecap="butt" d="m124.04724 670.3307l12.232605 -22.062988l27.597778 0l12.232605 22.062988l-12.232605 22.062988l-27.597778 0z" fill-rule="nonzero"></path><path fill="#000000" fill-opacity="0.0" d="m36.892387 414.40158l12.232605 -22.062988l27.597778 0l12.232613 22.062988l-12.232613 22.062988l-27.597778 0z" fill-rule="nonzero"></path><path stroke="#d9d9d9" stroke-width="4.0" stroke-linejoin="round" stroke-linecap="butt" d="m36.892387 414.40158l12.232605 -22.062988l27.597778 0l12.232613 22.062988l-12.232613 22.062988l-27.597778 0z" fill-rule="nonzero"></path></g></svg>

