<?xml version="1.0" standalone="yes"?>

<svg version="1.1" viewBox="0.0 0.0 454.0 173.0" fill="none" stroke="none" stroke-linecap="square" stroke-miterlimit="10" xmlns="http://www.w3.org/2000/svg" xmlns:xlink="http://www.w3.org/1999/xlink"><clipPath id="p.0"><path d="m0 0l454.0 0l0 173.0l-454.0 0l0 -173.0z" clip-rule="nonzero"></path></clipPath><g clip-path="url(#p.0)"><path fill="#000000" fill-opacity="0.0" d="m0 0l454.99738 0l0 173.26772l-454.99738 0z" fill-rule="nonzero"></path><path fill="#000000" fill-opacity="0.0" d="m153.63518 67.843834l17.357895 -31.307076l36.024353 0l17.35791 31.307076l-17.35791 31.307068l-36.024353 0z" fill-rule="nonzero"></path><path stroke="#134f5c" stroke-width="12.0" stroke-linejoin="round" stroke-linecap="butt" d="m153.63518 67.843834l17.357895 -31.307076l36.024353 0l17.35791 31.307076l-17.35791 31.307068l-36.024353 0z" fill-rule="nonzero"></path><path fill="#000000" fill-opacity="0.0" d="m131.49606 86.63386l17.357895 -31.307072l36.02437 0l17.357895 31.307072l-17.357895 31.307076l-36.02437 0z" fill-rule="nonzero"></path><path stroke="#45818e" stroke-width="12.0" stroke-linejoin="round" stroke-linecap="butt" d="m131.49606 86.63386l17.357895 -31.307072l36.02437 0l17.357895 31.307072l-17.357895 31.307076l-36.02437 0z" fill-rule="nonzero"></path><path fill="#000000" fill-opacity="0.0" d="m3.608924 3.367454l467.9685 0l0 162.4882l-467.9685 0z" fill-rule="nonzero"></path><path fill="#000000" d="m107.358925 135.30995l-15.75 0l-9.5 -49.374992l-18.4375 50.562492l-5.8125 0l-18.4375 -50.562492l-9.875002 49.374992l-15.687499 0l18.4375 -91.62499l8.625 0l19.8125 61.6875l19.375 -61.6875l8.5625 0l18.6875 91.62499zm129.25 -0.0625l0 -4.0625q-1.9375 2.125 -6.5625 3.71875q-4.625 1.59375 -9.5625 1.59375q-14.0 0 -22.03125 -8.874992q-8.03125 -8.875 -8.03125 -24.75q0 -15.875 9.21875 -25.84375q9.21875 -9.96875 23.09375 -9.96875q7.625 0 13.875 3.125l0 -26.8125l15.625 -3.75l0 95.62499l-15.625 0zm0 -50.937492q-5.0 -4.0 -10.4375 -4.0q-9.375 0 -14.4375 5.71875q-5.0625 5.71875 -5.0625 16.40625q0 20.875 20.125 20.875q2.25 0 5.53125 -1.34375q3.28125 -1.34375 4.28125 -2.71875l0 -34.9375zm74.3125 50.937492l0 -4.0625q-1.9375 2.125 -6.5625 3.71875q-4.625 1.59375 -9.5625 1.59375q-14.0 0 -22.03125 -8.874992q-8.03125 -8.875 -8.03125 -24.75q0 -15.875 9.21875 -25.84375q9.21875 -9.96875 23.09375 -9.96875q7.625 0 13.875 3.125l0 -26.8125l15.625 -3.75l0 95.62499l-15.625 0zm0 -50.937492q-5.0 -4.0 -10.4375 -4.0q-9.375 0 -14.4375 5.71875q-5.0625 5.71875 -5.0625 16.40625q0 20.875 20.125 20.875q2.25 0 5.53125 -1.34375q3.28125 -1.34375 4.28125 -2.71875l0 -34.9375zm33.9375 -40.9375l15.625 -3.75l0 75.25q0 12.375 7.375 14.749992q-3.625 6.875 -12.375 6.875q-10.625 0 -10.625 -14.749992l0 -78.375zm94.8125 63.1875l-47.8125 0q0.4375 8.0 5.5 12.4375q5.0625 4.4375 13.625 4.4375q10.6875 0 16.25 -5.5625l6.0625 11.937492q-8.25 6.6875 -24.625 6.6875q-15.3125 0 -24.21875 -8.968742q-8.90625 -8.96875 -8.90625 -25.03125q0 -15.8125 9.78125 -25.625q9.78125 -9.8125 23.46875 -9.8125q14.5625 0 23.375 8.6875q8.8125 8.6875 8.8125 22.125q0 2.875 -1.3125 8.6875zm-47.25 -11.75l32.875 0q-1.625 -14.6875 -16.25 -14.6875q-13.375 0 -16.625 14.6875z" fill-rule="nonzero"></path><path fill="#000000" fill-opacity="0.0" d="m111.4042 104.45145l17.357903 -31.307076l36.024353 0l17.35791 31.307076l-17.35791 31.307068l-36.024353 0z" fill-rule="nonzero"></path><path stroke="#76a5af" stroke-width="12.0" stroke-linejoin="round" stroke-linecap="butt" d="m111.4042 104.45145l17.357903 -31.307076l36.024353 0l17.35791 31.307076l-17.35791 31.307068l-36.024353 0z" fill-rule="nonzero"></path></g></svg>

