<?xml version="1.0" standalone="yes"?>

<svg version="1.1" viewBox="0.0 0.0 960.0 720.0" fill="none" stroke="none" stroke-linecap="square" stroke-miterlimit="10" xmlns="http://www.w3.org/2000/svg" xmlns:xlink="http://www.w3.org/1999/xlink"><clipPath id="p.0"><path d="m0 0l960.0 0l0 720.0l-960.0 0l0 -720.0z" clip-rule="nonzero"></path></clipPath><g clip-path="url(#p.0)"><path fill="#000000" fill-opacity="0.0" d="m0 0l960.0 0l0 720.0l-960.0 0z" fill-rule="nonzero"></path><path fill="#000000" fill-opacity="0.0" d="m184.91866 117.75493l-21.749771 -39.228325l-75.36661 0l-21.749763 39.228325l21.749763 39.228333l75.36661 0z" fill-rule="nonzero"></path><path stroke="#666666" stroke-width="16.0" stroke-linejoin="round" stroke-linecap="butt" d="m184.91866 117.75493l-21.749771 -39.228325l-75.36661 0l-21.749763 39.228325l21.749763 39.228333l75.36661 0z" fill-rule="nonzero"></path><path fill="#000000" fill-opacity="0.0" d="m925.07874 647.2966l-29.861145 -53.858215l-66.6084 0l-29.861145 53.858215l29.861145 53.858276l66.6084 0z" fill-rule="nonzero"></path><path stroke="#b7b7b7" stroke-width="12.0" stroke-linejoin="round" stroke-linecap="butt" d="m925.07874 647.2966l-29.861145 -53.858215l-66.6084 0l-29.861145 53.858215l29.861145 53.858276l66.6084 0z" fill-rule="nonzero"></path><path fill="#000000" fill-opacity="0.0" d="m948.88995 674.53284l-18.658875 -33.653564l-41.264954 0l-18.658875 33.653564l18.658875 33.653503l41.264954 0z" fill-rule="nonzero"></path><path stroke="#cccccc" stroke-width="8.0" stroke-linejoin="round" stroke-linecap="butt" d="m948.88995 674.53284l-18.658875 -33.653564l-41.264954 0l-18.658875 33.653564l18.658875 33.653503l41.264954 0z" fill-rule="nonzero"></path><path fill="#000000" fill-opacity="0.0" d="m163.16888 156.98326l19.496063 60.283463" fill-rule="nonzero"></path><path stroke="#666666" stroke-width="16.0" stroke-linejoin="round" stroke-linecap="butt" d="m163.16888 156.98326l19.496063 60.283463" fill-rule="nonzero"></path><path fill="#000000" fill-opacity="0.0" d="m85.57788 156.99931l-19.496063 60.25197" fill-rule="nonzero"></path><path stroke="#666666" stroke-width="16.0" stroke-linejoin="round" stroke-linecap="butt" d="m85.57788 156.99931l-19.496063 60.25197" fill-rule="nonzero"></path><path fill="#000000" fill-opacity="0.0" d="m89.63977 95.37358l0 0c0 -6.1810684 5.0107574 -11.191826 11.191826 -11.191826l49.332893 0c2.9682465 0 5.8149414 1.1791382 7.913803 3.2780151c2.098877 2.0988693 3.2780151 4.9455566 3.2780151 7.9138107l0 44.76596c0 6.181076 -5.0107574 11.191818 -11.191818 11.191818l-49.332893 0c-6.1810684 0 -11.191826 -5.010742 -11.191826 -11.191818z" fill-rule="nonzero"></path><path stroke="#45818e" stroke-width="8.0" stroke-linejoin="round" stroke-linecap="butt" d="m89.63977 95.37358l0 0c0 -6.1810684 5.0107574 -11.191826 11.191826 -11.191826l49.332893 0c2.9682465 0 5.8149414 1.1791382 7.913803 3.2780151c2.098877 2.0988693 3.2780151 4.9455566 3.2780151 7.9138107l0 44.76596c0 6.181076 -5.0107574 11.191818 -11.191818 11.191818l-49.332893 0c-6.1810684 0 -11.191826 -5.010742 -11.191826 -11.191818z" fill-rule="nonzero"></path><path fill="#000000" fill-opacity="0.0" d="m152.8728 11.423459l-26.740166 61.606304" fill-rule="nonzero"></path><path stroke="#999999" stroke-width="8.0" stroke-linejoin="round" stroke-linecap="butt" d="m152.8728 11.423459l-26.740166 61.606304" fill-rule="nonzero"></path><path fill="#000000" fill-opacity="0.0" d="m98.12557 10.545932l28.0 61.29134" fill-rule="nonzero"></path><path stroke="#999999" stroke-width="8.0" stroke-linejoin="round" stroke-linecap="butt" d="m98.12557 10.545932l28.0 61.29134" fill-rule="nonzero"></path></g></svg>

